<svg width="20" height="20" viewBox="0 0 20 20" fill="none" xmlns="http://www.w3.org/2000/svg">
<path d="M10.0003 12.1663C11.781 12.1663 13.3675 12.5286 14.4905 13.0901C15.6435 13.6665 16.1663 14.3707 16.1663 15.0002V16.1663H3.83331V15.0002C3.83331 14.3707 4.35619 13.6665 5.50909 13.0901C6.63224 12.5285 8.21937 12.1663 10.0003 12.1663ZM10.0003 3.83325C10.7516 3.83334 11.472 4.13205 12.0032 4.66333C12.5345 5.19461 12.8332 5.91493 12.8333 6.66626C12.8333 7.41771 12.5346 8.13881 12.0032 8.67017C11.472 9.20134 10.7516 9.50016 10.0003 9.50024C9.24886 9.50024 8.52775 9.20152 7.9964 8.67017C7.46505 8.13881 7.16632 7.41771 7.16632 6.66626C7.16641 5.91501 7.46522 5.19459 7.9964 4.66333C8.52775 4.13198 9.24886 3.83325 10.0003 3.83325Z" fill="black" stroke="#161616"/>
</svg>
