<svg width="20" height="20" viewBox="0 0 20 20" fill="none" xmlns="http://www.w3.org/2000/svg">
<path d="M2.49966 2.16675C2.58807 2.16675 2.67348 2.20189 2.73599 2.2644C2.79833 2.32682 2.83356 2.41154 2.83365 2.49976V17.1667H5.49966V14.1667C5.49966 14.0785 5.53501 13.9939 5.59732 13.9314C5.65983 13.8689 5.74524 13.8337 5.83365 13.8337C5.92194 13.8338 6.00657 13.869 6.069 13.9314C6.13141 13.9939 6.16666 14.0784 6.16666 14.1667V17.1667H8.83365V7.49976C8.83373 7.41147 8.86887 7.32684 8.9313 7.2644C8.9938 7.20199 9.07833 7.16675 9.16666 7.16675C9.25498 7.16675 9.33951 7.20199 9.40201 7.2644C9.46444 7.32684 9.49958 7.41147 9.49966 7.49976V17.1667H12.1667V10.8337C12.1667 10.7453 12.2018 10.6599 12.2643 10.5974C12.3267 10.5351 12.4115 10.4998 12.4997 10.4998C12.5881 10.4998 12.6735 10.5349 12.736 10.5974C12.7985 10.6599 12.8336 10.7453 12.8336 10.8337V17.1667H15.4997V4.16675C15.4997 4.0785 15.535 3.99388 15.5973 3.9314C15.6598 3.86888 15.7452 3.83374 15.8336 3.83374C15.9219 3.83383 16.0066 3.86896 16.069 3.9314C16.1314 3.99389 16.1667 4.07842 16.1667 4.16675V17.1667H17.4997C17.5881 17.1667 17.6735 17.2019 17.736 17.2644C17.7983 17.3268 17.8336 17.4115 17.8336 17.4998C17.8336 17.5882 17.7985 17.6736 17.736 17.7361C17.6735 17.7986 17.5881 17.8337 17.4997 17.8337H2.49966C2.41145 17.8337 2.32673 17.7984 2.26431 17.7361C2.2018 17.6736 2.16666 17.5882 2.16666 17.4998V2.49976C2.16674 2.41147 2.20188 2.32684 2.26431 2.2644C2.32675 2.20197 2.41138 2.16683 2.49966 2.16675Z" fill="#161616" stroke="#161616"/>
</svg>
