<svg width="20" height="20" viewBox="0 0 20 20" fill="none" xmlns="http://www.w3.org/2000/svg">
<path d="M16.6666 13.3332V7.08317C16.6666 6.39317 16.1325 5.83317 15.4333 5.83317C15 5.83317 14.1666 6.08317 14.1666 7.08317V4.58317M14.1666 4.58317C14.1666 3.89317 13.6325 3.33317 12.9333 3.33317C12.5108 3.33317 11.6666 3.58317 11.6666 4.58317M14.1666 4.58317V9.1665M11.6666 4.58317V2.9165C11.6666 2.2265 11.1325 1.6665 10.4333 1.6665C9.73329 1.6665 9.16663 2.2265 9.16663 2.9165V4.58317M11.6666 4.58317V9.1665M9.16663 4.58317C9.16663 3.58317 8.33913 3.33317 7.91663 3.33317C7.21663 3.33317 6.66663 3.909 6.66663 4.59984V11.6665M9.16663 4.58317V9.1665" stroke="white" stroke-width="1.66667" stroke-linecap="round" stroke-linejoin="round"/>
<path d="M16.6667 13.333C16.6667 16.6664 14.055 18.333 10.8333 18.333C7.61166 18.333 6.50333 17.4997 4.00333 13.333L2.69416 11.1622C2.2475 10.4389 2.605 9.50053 3.42833 9.23386C3.69758 9.14628 3.98722 9.14342 4.25815 9.22569C4.52907 9.30795 4.76823 9.47136 4.94333 9.69386L6.66666 11.6939" stroke="white" stroke-width="1.66667" stroke-linecap="round" stroke-linejoin="round"/>
</svg>
