<svg width="20" height="20" viewBox="0 0 20 20" fill="none" xmlns="http://www.w3.org/2000/svg">
<mask id="path-1-inside-1_2199_2351" fill="white">
<path d="M10.4942 19.3815L10.485 19.3832L10.4259 19.4124L10.4092 19.4157L10.3975 19.4124L10.3384 19.3832C10.3295 19.3804 10.3228 19.3818 10.3184 19.3874L10.315 19.3957L10.3009 19.7524L10.305 19.769L10.3134 19.7799L10.4 19.8415L10.4125 19.8449L10.4225 19.8415L10.5092 19.7799L10.5192 19.7665L10.5225 19.7524L10.5084 19.3965C10.5061 19.3876 10.5014 19.3826 10.4942 19.3815ZM10.715 19.2874L10.7042 19.289L10.55 19.3665L10.5417 19.3749L10.5392 19.384L10.5542 19.7424L10.5584 19.7524L10.565 19.7582L10.7325 19.8357C10.7431 19.8385 10.7511 19.8363 10.7567 19.829L10.76 19.8174L10.7317 19.3057C10.7289 19.2957 10.7234 19.2896 10.715 19.2874ZM10.1192 19.289C10.1155 19.2868 10.1111 19.2861 10.1069 19.287C10.1027 19.2879 10.0991 19.2905 10.0967 19.294L10.0917 19.3057L10.0634 19.8174C10.0639 19.8274 10.0686 19.834 10.0775 19.8374L10.09 19.8357L10.2575 19.7582L10.2659 19.7515L10.2692 19.7424L10.2834 19.384L10.2809 19.374L10.2725 19.3657L10.1192 19.289Z"/>
</mask>
<path d="M10.4942 19.3815L10.6462 18.3932L10.4804 18.3676L10.3152 18.3977L10.4942 19.3815ZM10.485 19.3832L10.3061 18.3993L10.1684 18.4244L10.0429 18.4863L10.485 19.3832ZM10.4259 19.4124L10.622 20.393L10.7505 20.3673L10.868 20.3093L10.4259 19.4124ZM10.4092 19.4157L10.1345 20.3772L10.3676 20.4438L10.6053 20.3963L10.4092 19.4157ZM10.3975 19.4124L9.95537 20.3093L10.0362 20.3491L10.1228 20.3739L10.3975 19.4124ZM10.3384 19.3832L10.7805 18.4863L10.7108 18.4519L10.6366 18.4287L10.3384 19.3832ZM10.3184 19.3874L9.53749 18.7627L9.4449 18.8784L9.38987 19.016L10.3184 19.3874ZM10.315 19.3957L9.38653 19.0243L9.32264 19.1841L9.31581 19.356L10.315 19.3957ZM10.3009 19.7524L9.30164 19.7127L9.29595 19.8559L9.33071 19.9949L10.3009 19.7524ZM10.305 19.769L9.33488 20.0116L9.3854 20.2136L9.51239 20.3787L10.305 19.769ZM10.3134 19.7799L9.52073 20.3896L9.61184 20.508L9.7336 20.5947L10.3134 19.7799ZM10.4 19.8415L9.82027 20.6563L9.96763 20.7612L10.1424 20.8078L10.4 19.8415ZM10.4125 19.8449L10.1549 20.8111L10.4444 20.8883L10.7287 20.7936L10.4125 19.8449ZM10.4225 19.8415L10.7387 20.7902L10.8805 20.743L11.0023 20.6563L10.4225 19.8415ZM10.5092 19.7799L11.0889 20.5947L11.2158 20.5044L11.3092 20.3799L10.5092 19.7799ZM10.5192 19.7665L11.3192 20.3665L11.4447 20.1992L11.4926 19.9956L10.5192 19.7665ZM10.5225 19.7524L11.4959 19.9814L11.5272 19.8487L11.5217 19.7126L10.5225 19.7524ZM10.5084 19.3965L11.5076 19.3568L11.5035 19.2539L11.4785 19.154L10.5084 19.3965ZM10.715 19.2874L10.9727 18.3211L10.7702 18.2671L10.563 18.299L10.715 19.2874ZM10.7042 19.289L10.5522 18.3007L10.3961 18.3246L10.255 18.3956L10.7042 19.289ZM10.55 19.3665L10.1009 18.4731L9.95688 18.5455L9.84291 18.6594L10.55 19.3665ZM10.5417 19.3749L9.83458 18.6678L9.64678 18.8556L9.57691 19.1118L10.5417 19.3749ZM10.5392 19.384L9.57441 19.121L9.53357 19.2707L9.54006 19.4259L10.5392 19.384ZM10.5542 19.7424L9.55506 19.7842L9.56252 19.9624L9.63112 20.127L10.5542 19.7424ZM10.5584 19.7524L9.63529 20.137L9.72478 20.3518L9.89987 20.505L10.5584 19.7524ZM10.565 19.7582L9.90654 20.5108L10.0147 20.6054L10.1451 20.6658L10.565 19.7582ZM10.7325 19.8357L10.3126 20.7433L10.3927 20.7803L10.478 20.8028L10.7325 19.8357ZM10.7567 19.829L11.5493 20.4387L11.6658 20.2874L11.7182 20.1037L10.7567 19.829ZM10.76 19.8174L11.7215 20.0921L11.7678 19.9302L11.7585 19.7621L10.76 19.8174ZM10.7317 19.3057L11.7302 19.2504L11.7242 19.1423L11.6952 19.0381L10.7317 19.3057ZM10.1192 19.289L9.6009 20.1442L9.63564 20.1653L9.67197 20.1835L10.1192 19.289ZM10.0967 19.294L9.26498 18.7388L9.21384 18.8154L9.17756 18.9001L10.0967 19.294ZM10.0917 19.3057L9.17256 18.9118L9.10298 19.0741L9.09322 19.2504L10.0917 19.3057ZM10.0634 19.8174L9.06488 19.7621L9.06182 19.8175L9.06489 19.8728L10.0634 19.8174ZM10.0775 19.8374L9.7264 20.7737L9.96119 20.8617L10.2097 20.8286L10.0775 19.8374ZM10.09 19.8357L10.2222 20.8269L10.3724 20.8069L10.5099 20.7433L10.09 19.8357ZM10.2575 19.7582L10.6774 20.6658L10.7875 20.6148L10.8822 20.5391L10.2575 19.7582ZM10.2659 19.7515L10.8905 20.5324L11.1097 20.3571L11.2057 20.0933L10.2659 19.7515ZM10.2692 19.7424L11.209 20.0841L11.2622 19.9376L11.2684 19.7819L10.2692 19.7424ZM10.2834 19.384L11.2826 19.4235L11.2882 19.2804L11.2535 19.1415L10.2834 19.384ZM10.2809 19.374L11.251 19.1315L11.1838 18.8628L10.988 18.6669L10.2809 19.374ZM10.2725 19.3657L10.9796 18.6586L10.8649 18.5438L10.7197 18.4713L10.2725 19.3657ZM10.4942 19.3815L10.3152 18.3977L10.3061 18.3993L10.485 19.3832L10.664 20.3671L10.6731 20.3654L10.4942 19.3815ZM10.485 19.3832L10.0429 18.4863L9.9837 18.5154L10.4259 19.4124L10.868 20.3093L10.9272 20.2801L10.485 19.3832ZM10.4259 19.4124L10.2297 18.4318L10.2131 18.4351L10.4092 19.4157L10.6053 20.3963L10.622 20.393L10.4259 19.4124ZM10.4092 19.4157L10.6839 18.4542L10.6722 18.4508L10.3975 19.4124L10.1228 20.3739L10.1345 20.3772L10.4092 19.4157ZM10.3975 19.4124L10.8397 18.5154L10.7805 18.4863L10.3384 19.3832L9.8962 20.2801L9.95537 20.3093L10.3975 19.4124ZM10.3384 19.3832L10.6366 18.4287C10.5267 18.3944 10.343 18.3573 10.1228 18.4032C9.881 18.4535 9.67795 18.5871 9.53749 18.7627L10.3184 19.3874L11.0992 20.0121C10.9632 20.1821 10.7657 20.3122 10.5306 20.3612C10.317 20.4056 10.1411 20.3693 10.0401 20.3377L10.3384 19.3832ZM10.3184 19.3874L9.38987 19.016L9.38653 19.0243L10.315 19.3957L11.2435 19.7671L11.2468 19.7587L10.3184 19.3874ZM10.315 19.3957L9.31581 19.356L9.30164 19.7127L10.3009 19.7524L11.3001 19.7921L11.3142 19.4354L10.315 19.3957ZM10.3009 19.7524L9.33071 19.9949L9.33488 20.0116L10.305 19.769L11.2752 19.5265L11.271 19.5098L10.3009 19.7524ZM10.305 19.769L9.51239 20.3787L9.52073 20.3896L10.3134 19.7799L11.106 19.1702L11.0976 19.1593L10.305 19.769ZM10.3134 19.7799L9.7336 20.5947L9.82027 20.6563L10.4 19.8415L10.9798 19.0267L10.8931 18.9651L10.3134 19.7799ZM10.4 19.8415L10.1424 20.8078L10.1549 20.8111L10.4125 19.8449L10.6702 18.8786L10.6577 18.8753L10.4 19.8415ZM10.4125 19.8449L10.7287 20.7936L10.7387 20.7902L10.4225 19.8415L10.1063 18.8928L10.0963 18.8962L10.4125 19.8449ZM10.4225 19.8415L11.0023 20.6563L11.0889 20.5947L10.5092 19.7799L9.92944 18.9651L9.84277 19.0267L10.4225 19.8415ZM10.5092 19.7799L11.3092 20.3799L11.3192 20.3665L10.5192 19.7665L9.71918 19.1665L9.70918 19.1799L10.5092 19.7799ZM10.5192 19.7665L11.4926 19.9956L11.4959 19.9814L10.5225 19.7524L9.5491 19.5233L9.54577 19.5375L10.5192 19.7665ZM10.5225 19.7524L11.5217 19.7126L11.5076 19.3568L10.5084 19.3965L9.50915 19.4363L9.52331 19.7921L10.5225 19.7524ZM10.5084 19.3965L11.4785 19.154C11.4491 19.0365 11.3831 18.8614 11.2302 18.6995C11.0651 18.5248 10.855 18.4253 10.6462 18.3932L10.4942 19.3815L10.3421 20.3699C10.1406 20.3389 9.93643 20.2425 9.77612 20.0727C9.62794 19.9158 9.56536 19.7477 9.53821 19.6391L10.5084 19.3965ZM10.715 19.2874L10.563 18.299L10.5522 18.3007L10.7042 19.289L10.8562 20.2774L10.867 20.2758L10.715 19.2874ZM10.7042 19.289L10.255 18.3956L10.1009 18.4731L10.55 19.3665L10.9992 20.26L11.1533 20.1825L10.7042 19.289ZM10.55 19.3665L9.84291 18.6594L9.83458 18.6678L10.5417 19.3749L11.2488 20.082L11.2571 20.0736L10.55 19.3665ZM10.5417 19.3749L9.57691 19.1118L9.57441 19.121L10.5392 19.384L11.504 19.6471L11.5065 19.6379L10.5417 19.3749ZM10.5392 19.384L9.54006 19.4259L9.55506 19.7842L10.5542 19.7424L11.5533 19.7005L11.5383 19.3422L10.5392 19.384ZM10.5542 19.7424L9.63112 20.127L9.63529 20.137L10.5584 19.7524L11.4814 19.3677L11.4773 19.3577L10.5542 19.7424ZM10.5584 19.7524L9.89987 20.505L9.90654 20.5108L10.565 19.7582L11.2235 19.0056L11.2168 18.9998L10.5584 19.7524ZM10.565 19.7582L10.1451 20.6658L10.3126 20.7433L10.7325 19.8357L11.1524 18.9281L10.9849 18.8506L10.565 19.7582ZM10.7325 19.8357L10.478 20.8028C10.6031 20.8357 10.7938 20.8604 11.0124 20.8001C11.245 20.736 11.4268 20.5981 11.5493 20.4387L10.7567 19.829L9.96406 19.2193C10.0811 19.0672 10.256 18.9341 10.4806 18.8721C10.6911 18.814 10.8725 18.8385 10.987 18.8686L10.7325 19.8357ZM10.7567 19.829L11.7182 20.1037L11.7215 20.0921L10.76 19.8174L9.79849 19.5427L9.79516 19.5543L10.7567 19.829ZM10.76 19.8174L11.7585 19.7621L11.7302 19.2504L10.7317 19.3057L9.73322 19.361L9.76155 19.8727L10.76 19.8174ZM10.7317 19.3057L11.6952 19.0381C11.6202 18.7681 11.3981 18.4346 10.9727 18.3211L10.715 19.2874L10.4574 20.2536C10.2846 20.2075 10.1179 20.1119 9.98552 19.9663C9.85963 19.8278 9.79815 19.6813 9.76817 19.5733L10.7317 19.3057ZM10.1192 19.289L10.6375 18.4338C10.4133 18.298 10.1456 18.254 9.89 18.3108L10.1069 19.287L10.3239 20.2632C10.0767 20.3181 9.81768 20.2756 9.6009 20.1442L10.1192 19.289ZM10.1069 19.287L9.89 18.3108C9.63438 18.3676 9.41044 18.5209 9.26498 18.7388L10.0967 19.294L10.9284 19.8492C10.7877 20.06 10.5711 20.2083 10.3239 20.2632L10.1069 19.287ZM10.0967 19.294L9.17756 18.9001L9.17256 18.9118L10.0917 19.3057L11.0108 19.6997L11.0158 19.688L10.0967 19.294ZM10.0917 19.3057L9.09322 19.2504L9.06488 19.7621L10.0634 19.8174L11.0618 19.8727L11.0902 19.361L10.0917 19.3057ZM10.0634 19.8174L9.06489 19.8728C9.07325 20.0232 9.11792 20.2196 9.25129 20.4079C9.38713 20.5997 9.56579 20.7135 9.7264 20.7737L10.0775 19.8374L10.4286 18.901C10.5804 18.9579 10.7522 19.0667 10.8833 19.2518C11.012 19.4335 11.054 19.6215 11.0618 19.7619L10.0634 19.8174ZM10.0775 19.8374L10.2097 20.8286L10.2222 20.8269L10.09 19.8357L9.9578 18.8445L9.9453 18.8461L10.0775 19.8374ZM10.09 19.8357L10.5099 20.7433L10.6774 20.6658L10.2575 19.7582L9.8376 18.8506L9.6701 18.9281L10.09 19.8357ZM10.2575 19.7582L10.8822 20.5391L10.8905 20.5324L10.2659 19.7515L9.6412 18.9706L9.63286 18.9773L10.2575 19.7582ZM10.2659 19.7515L11.2057 20.0933L11.209 20.0841L10.2692 19.7424L9.32939 19.4006L9.32606 19.4098L10.2659 19.7515ZM10.2692 19.7424L11.2684 19.7819L11.2826 19.4235L10.2834 19.384L9.28414 19.3445L9.26997 19.7029L10.2692 19.7424ZM10.2834 19.384L11.2535 19.1415L11.251 19.1315L10.2809 19.374L9.31072 19.6166L9.31322 19.6266L10.2834 19.384ZM10.2809 19.374L10.988 18.6669L10.9796 18.6586L10.2725 19.3657L9.56541 20.0728L9.57375 20.0811L10.2809 19.374ZM10.2725 19.3657L10.7197 18.4713L10.5664 18.3946L10.1192 19.289L9.67197 20.1835L9.8253 20.2601L10.2725 19.3657Z" fill="#161616" mask="url(#path-1-inside-1_2199_2351)"/>
<path d="M17.5 5.83325C17.721 5.83325 17.933 5.92105 18.0893 6.07733C18.2456 6.23361 18.3334 6.44557 18.3334 6.66659C18.3334 6.8876 18.2456 7.09956 18.0893 7.25584C17.933 7.41212 17.721 7.49992 17.5 7.49992V15.8333C17.721 15.8333 17.933 15.921 18.0893 16.0773C18.2456 16.2336 18.3334 16.4456 18.3334 16.6666C18.3334 16.8876 18.2456 17.0996 18.0893 17.2558C17.933 17.4121 17.721 17.4999 17.5 17.4999H2.50002C2.27901 17.4999 2.06704 17.4121 1.91076 17.2558C1.75448 17.0996 1.66669 16.8876 1.66669 16.6666C1.66669 16.4456 1.75448 16.2336 1.91076 16.0773C2.06704 15.921 2.27901 15.8333 2.50002 15.8333V7.49992C2.27901 7.49992 2.06704 7.41212 1.91076 7.25584C1.75448 7.09956 1.66669 6.8876 1.66669 6.66659C1.66669 6.44557 1.75448 6.23361 1.91076 6.07733C2.06704 5.92105 2.27901 5.83325 2.50002 5.83325H17.5ZM5.83335 9.16659C5.61234 9.16659 5.40038 9.25438 5.2441 9.41066C5.08782 9.56694 5.00002 9.77891 5.00002 9.99992V15.8333H6.66669V9.99992C6.66669 9.77891 6.57889 9.56694 6.42261 9.41066C6.26633 9.25438 6.05437 9.16659 5.83335 9.16659ZM10 9.16659C9.77901 9.16659 9.56705 9.25438 9.41076 9.41066C9.25448 9.56694 9.16669 9.77891 9.16669 9.99992V15.8333H10.8334V9.99992C10.8334 9.77891 10.7456 9.56694 10.5893 9.41066C10.433 9.25438 10.221 9.16659 10 9.16659ZM14.1667 9.16659C13.9457 9.16659 13.7337 9.25438 13.5774 9.41066C13.4212 9.56694 13.3334 9.77891 13.3334 9.99992V15.8333H15V9.99992C15 9.77891 14.9122 9.56694 14.7559 9.41066C14.5997 9.25438 14.3877 9.16659 14.1667 9.16659ZM15 3.33325C15.221 3.33325 15.433 3.42105 15.5893 3.57733C15.7456 3.73361 15.8334 3.94557 15.8334 4.16659C15.8334 4.3876 15.7456 4.59956 15.5893 4.75584C15.433 4.91212 15.221 4.99992 15 4.99992H5.00002C4.77901 4.99992 4.56705 4.91212 4.41076 4.75584C4.25448 4.59956 4.16669 4.3876 4.16669 4.16659C4.16669 3.94557 4.25448 3.73361 4.41076 3.57733C4.56705 3.42105 4.77901 3.33325 5.00002 3.33325H15Z" fill="#161616"/>
</svg>
