<svg width="20" height="20" viewBox="0 0 20 20" fill="none" xmlns="http://www.w3.org/2000/svg">
<path d="M13.3333 3.33496C15.1458 3.34496 16.1275 3.42579 16.7675 4.06579C17.5 4.79829 17.5 5.97663 17.5 8.33329V13.3333C17.5 15.6908 17.5 16.8691 16.7675 17.6016C16.0358 18.3333 14.8567 18.3333 12.5 18.3333H7.5C5.14333 18.3333 3.96417 18.3333 3.2325 17.6016C2.5 16.8683 2.5 15.6908 2.5 13.3333V8.33329C2.5 5.97663 2.5 4.79829 3.2325 4.06579C3.8725 3.42579 4.85417 3.34496 6.66667 3.33496" stroke="#161616" stroke-width="1.5"/>
<path d="M6.66668 11.6667H13.3333M5.83334 8.75H14.1667M7.50001 14.5833H12.5" stroke="#161616" stroke-width="1.5" stroke-linecap="round"/>
<path d="M6.66666 2.91675C6.66666 2.58523 6.79835 2.26729 7.03277 2.03286C7.26719 1.79844 7.58514 1.66675 7.91666 1.66675H12.0833C12.4148 1.66675 12.7328 1.79844 12.9672 2.03286C13.2016 2.26729 13.3333 2.58523 13.3333 2.91675V3.75008C13.3333 4.0816 13.2016 4.39954 12.9672 4.63396C12.7328 4.86839 12.4148 5.00008 12.0833 5.00008H7.91666C7.58514 5.00008 7.26719 4.86839 7.03277 4.63396C6.79835 4.39954 6.66666 4.0816 6.66666 3.75008V2.91675Z" stroke="#161616" stroke-width="1.5"/>
</svg>
